<svg width="72" height="73" viewBox="0 0 72 73" fill="none" xmlns="http://www.w3.org/2000/svg">
<path d="M35.9998 55.4922C46.4889 55.4922 54.9919 46.9891 54.9919 36.5C54.9919 26.0109 46.4889 17.5078 35.9998 17.5078C25.5107 17.5078 17.0076 26.0109 17.0076 36.5C17.0076 46.9891 25.5107 55.4922 35.9998 55.4922Z" fill="#FF9E2D"/>
<path d="M35.9998 13.0391C36.5923 13.0391 37.1607 12.8037 37.5797 12.3846C37.9987 11.9656 38.2341 11.3973 38.2341 10.8047V5.21875C38.2341 4.62616 37.9987 4.05783 37.5797 3.63881C37.1607 3.21978 36.5923 2.98438 35.9998 2.98438C35.4072 2.98438 34.8388 3.21978 34.4198 3.63881C34.0008 4.05783 33.7654 4.62616 33.7654 5.21875V10.8047C33.7654 11.3973 34.0008 11.9656 34.4198 12.3846C34.8388 12.8037 35.4072 13.0391 35.9998 13.0391Z" fill="#FF9E2D"/>
<path d="M16.2535 19.9098C16.6759 20.3209 17.2421 20.551 17.8316 20.551C18.421 20.551 18.9872 20.3209 19.4096 19.9098C19.8274 19.4909 20.0621 18.9234 20.0621 18.3317C20.0621 17.7401 19.8274 17.1726 19.4096 16.7537L15.4715 12.7877C15.2712 12.5436 15.0219 12.3441 14.7399 12.2022C14.4578 12.0602 14.1491 11.9788 13.8337 11.9634C13.5183 11.9479 13.2032 11.9986 12.9085 12.1122C12.6139 12.2259 12.3464 12.4 12.1231 12.6232C11.8998 12.8465 11.7257 13.1141 11.612 13.4087C11.4984 13.7034 11.4477 14.0185 11.4632 14.3339C11.4787 14.6493 11.56 14.958 11.702 15.2401C11.844 15.5221 12.0434 15.7713 12.2875 15.9717L16.2535 19.9098Z" fill="#FF9E2D"/>
<path d="M12.5388 36.5C12.5388 35.9074 12.3034 35.3391 11.8844 34.9201C11.4654 34.501 10.897 34.2656 10.3044 34.2656H4.71851C4.12591 34.2656 3.55759 34.501 3.13856 34.9201C2.71954 35.3391 2.48413 35.9074 2.48413 36.5C2.48413 37.0926 2.71954 37.6609 3.13856 38.0799C3.55759 38.499 4.12591 38.7344 4.71851 38.7344H10.3044C10.897 38.7344 11.4654 38.499 11.8844 38.0799C12.3034 37.6609 12.5388 37.0926 12.5388 36.5Z" fill="#FF9E2D"/>
<path d="M16.2535 53.0903L12.2875 57.0284C11.8679 57.452 11.6326 58.0242 11.6326 58.6204C11.6326 59.2166 11.8679 59.7888 12.2875 60.2124C12.7195 60.6176 13.2873 60.8467 13.8795 60.8548C14.4728 60.8523 15.0426 60.6224 15.4715 60.2124L19.4096 56.2464C19.7947 55.8213 20.0016 55.2645 19.9875 54.6911C19.9734 54.1177 19.7393 53.5717 19.3338 53.1662C18.9282 52.7606 18.3822 52.5265 17.8088 52.5124C17.2354 52.4983 16.6786 52.7052 16.2535 53.0903Z" fill="#FF9E2D"/>
<path d="M35.9998 59.9609C35.4072 59.9609 34.8388 60.1963 34.4198 60.6154C34.0008 61.0344 33.7654 61.6027 33.7654 62.1953V67.7812C33.7654 68.3738 34.0008 68.9422 34.4198 69.3612C34.8388 69.7802 35.4072 70.0156 35.9998 70.0156C36.5923 70.0156 37.1607 69.7802 37.5797 69.3612C37.9987 68.9422 38.2341 68.3738 38.2341 67.7812V62.1953C38.2341 61.6027 37.9987 61.0344 37.5797 60.6154C37.1607 60.1963 36.5923 59.9609 35.9998 59.9609Z" fill="#FF9E2D"/>
<path d="M55.7461 53.0903C55.3211 52.7052 54.7642 52.4983 54.1909 52.5124C53.6175 52.5265 53.0715 52.7606 52.6659 53.1662C52.2603 53.5717 52.0263 54.1177 52.0122 54.6911C51.998 55.2645 52.205 55.8213 52.5901 56.2464L56.5282 60.2124C56.9571 60.6224 57.5268 60.8523 58.1201 60.8548C58.7124 60.8467 59.2802 60.6176 59.7121 60.2124C60.1317 59.7888 60.3671 59.2166 60.3671 58.6204C60.3671 58.0242 60.1317 57.452 59.7121 57.0284L55.7461 53.0903Z" fill="#FF9E2D"/>
<path d="M67.281 34.2656H61.6951C61.1025 34.2656 60.5341 34.501 60.1151 34.9201C59.6961 35.3391 59.4607 35.9074 59.4607 36.5C59.4607 37.0926 59.6961 37.6609 60.1151 38.0799C60.5341 38.499 61.1025 38.7344 61.6951 38.7344H67.281C67.8736 38.7344 68.4419 38.499 68.8609 38.0799C69.28 37.6609 69.5154 37.0926 69.5154 36.5C69.5154 35.9074 69.28 35.3391 68.8609 34.9201C68.4419 34.501 67.8736 34.2656 67.281 34.2656Z" fill="#FF9E2D"/>
<path d="M54.182 20.5522C54.4724 20.5547 54.7603 20.4992 55.0289 20.3889C55.2975 20.2786 55.5413 20.1157 55.7461 19.9098L59.7121 15.9717C60.0684 15.5376 60.2505 14.9864 60.2229 14.4255C60.1954 13.8646 59.9602 13.3339 59.563 12.9368C59.1659 12.5397 58.6353 12.3044 58.0743 12.2769C57.5134 12.2493 56.9622 12.4314 56.5281 12.7877L52.59 16.7537C52.1722 17.1726 51.9375 17.7401 51.9375 18.3318C51.9375 18.9234 52.1722 19.4909 52.59 19.9098C52.798 20.1191 53.0464 20.284 53.3201 20.3944C53.5937 20.5048 53.887 20.5585 54.182 20.5522Z" fill="#FF9E2D"/>
</svg>
